<svg width="62" height="69" viewBox="0 0 62 69" fill="none" xmlns="http://www.w3.org/2000/svg">
<path d="M14.1137 47.7513C14.1944 47.5466 14.3069 47.3477 14.3501 47.1344C14.9252 44.3035 14.2132 41.8128 12.3264 39.6479C11.1762 38.329 9.73338 37.4166 8.14066 36.7291C5.70762 35.6798 3.13621 35.403 0.521556 35.3785C-0.0348146 35.3727 -0.0780568 35.4794 0.0790529 36.0113C0.580651 37.7121 1.04189 39.4244 1.55502 41.1209C2.46741 44.1435 4.4075 46.307 7.18214 47.7628C8.71576 48.5671 10.3546 48.9721 12.0684 49.1119C12.5253 49.1494 12.7473 48.9591 12.6262 48.5656C12.2442 47.3304 11.9344 46.0605 11.414 44.8829C10.5405 42.9068 9.20583 41.2406 7.54681 39.8497C6.93423 39.3365 6.28417 38.8695 5.64131 38.3737C6.4874 38.3449 9.53735 40.4363 10.9758 42.0146C12.4677 43.652 13.5415 45.5085 13.9321 47.7282C13.9912 47.7368 14.0532 47.7441 14.1137 47.7513Z" fill="#43A22A"/>
<path d="M48.8696 26.4045C48.6937 26.318 48.6519 26.0946 48.7845 25.9505C51.294 23.1946 52.8319 19.5378 52.8319 15.5178C52.8319 6.94742 45.8845 0 37.3141 0C37.1469 0 36.9854 0.0201801 36.8197 0.0245042C36.7361 0.0201801 36.6568 0 36.5718 0H21.175C18.6065 0 16.5237 2.08279 16.5237 4.65131V43.3061C16.5237 43.5828 16.8624 43.701 17.0412 43.4906C19.7899 40.2547 23.5389 37.8274 28.2392 36.2693C33.062 34.6708 38.3692 34.1332 44.0165 34.6694C44.4921 34.714 45.7591 34.8351 46.4308 35.9911C47.1053 37.1514 46.5749 38.329 46.376 38.773C46.2722 39.0007 46.167 39.2284 46.0618 39.4547C45.785 40.05 45.5227 40.6121 45.3339 41.1613C44.9807 42.1919 44.6478 43.2311 44.3148 44.2718C43.7729 45.964 43.2107 47.7138 42.5636 49.4276C41.5949 51.9904 40.2271 54.2274 38.4974 56.0738C35.877 58.8729 33.0836 60.9139 29.9559 62.3149C26.5456 63.8413 22.9609 64.6168 19.2998 64.6168C19.2349 64.6168 19.1715 64.6168 19.1066 64.6153C18.5863 64.611 17.7229 64.598 16.9893 64.1123C16.7875 63.9797 16.5208 64.1065 16.5208 64.3487C16.5208 66.9172 18.6036 69 21.1721 69H36.5674C36.8081 69 37.0388 68.9669 37.2679 68.9294C37.8301 68.9712 38.3951 69 38.9688 69C51.366 69 61.4167 58.9493 61.4167 46.552C61.4196 37.7092 56.3027 30.0627 48.8696 26.4045Z" fill="url(#paint0_linear_5_4)"/>
<path d="M15.2956 59.755C18.1452 50.3371 24.8534 44.893 33.5982 41.5447C33.6616 41.6211 33.7236 41.6989 33.787 41.7753C33.1369 42.1558 32.484 42.5292 31.8383 42.9169C27.7145 45.3946 24.3835 48.668 21.7659 52.7153C20.0651 55.3444 18.8659 58.1594 18.102 61.1762C17.8036 62.3509 17.9074 62.5138 19.1239 62.5225C22.6005 62.5484 25.9185 61.8306 29.1011 60.4051C32.1438 59.043 34.7095 57.0582 36.9695 54.6439C38.5911 52.9114 39.7773 50.8805 40.6047 48.6896C41.6237 45.9928 42.4208 43.2124 43.3548 40.4838C43.6561 39.6046 44.0827 38.7672 44.4661 37.9168C44.8467 37.0721 44.7241 36.8429 43.819 36.7579C38.7468 36.275 33.7409 36.6556 28.8993 38.2598C23.964 39.8958 19.7423 42.6286 16.9503 47.1473C14.98 50.3371 14.2045 53.854 14.683 57.6074C14.7724 58.305 14.8747 58.9997 14.9713 59.6959C15.078 59.7147 15.1875 59.7348 15.2956 59.755Z" fill="#43A22A"/>
<path d="M40.1939 41.7148C40.2458 43.8322 39.7543 45.9136 39.0293 47.9012C38.2797 49.8846 37.2088 51.7699 35.8366 53.4419C34.4803 55.1268 32.7103 56.5005 30.7846 57.4864C30.2888 57.7112 29.7929 57.9317 29.2957 58.1321C28.7768 58.2878 28.2492 58.4146 27.7332 58.5458L26.9534 58.7115C26.6853 58.7317 26.4201 58.7605 26.152 58.7677C25.6202 58.7951 25.0941 58.8153 24.5737 58.7994C25.0451 58.5386 25.5106 58.3123 25.969 58.0946C26.1967 57.9793 26.4273 57.8842 26.6551 57.7833L27.3008 57.3883C27.7289 57.1332 28.1628 56.9069 28.5764 56.6489C28.9699 56.3505 29.3649 56.0695 29.7598 55.7942C31.2862 54.6166 32.693 53.3323 33.9052 51.8318C35.126 50.3458 36.2316 48.7444 37.2535 47.0465C38.2812 45.3514 39.2282 43.58 40.1939 41.7148Z" fill="#336633"/>
<path d="M11.2886 47.7311C10.209 47.8306 9.13372 47.5812 8.13484 47.1719C7.13453 46.7553 6.21061 46.1341 5.43371 45.3572C4.65537 44.586 4.00963 43.665 3.61181 42.6488C3.18228 41.6485 3.0122 40.556 3.07418 39.4908C3.69397 40.383 4.16242 41.2449 4.76491 42.0103C5.31984 42.7987 5.94828 43.5021 6.61275 44.1666C7.9417 45.5128 9.4955 46.5924 11.2886 47.7311Z" fill="#336633"/>
<path d="M36.7001 3.92195C38.5162 3.84988 40.3482 4.29527 42.0317 5.10099C43.7181 5.90384 45.2301 7.20396 46.2506 8.84568C47.2235 10.4975 47.8116 12.4088 47.7323 14.2854C47.7669 14.7539 47.7179 15.2151 47.643 15.672L47.4354 17.0341C47.1875 17.9162 46.892 18.7811 46.5562 19.6113C46.5302 18.6931 46.6023 17.8139 46.6167 16.9419L46.5447 15.6418L46.523 15.0003C46.5202 14.787 46.4567 14.5795 46.4279 14.3705C46.3501 13.9539 46.2809 13.5402 46.2276 13.1251C46.1281 12.7215 45.9825 12.3324 45.8658 11.9374C45.7923 11.7457 45.7721 11.5338 45.677 11.3522L45.4146 10.7987C45.2402 10.4298 45.0874 10.0507 44.8323 9.73069C44.0006 8.33544 42.7841 7.17801 41.386 6.22959C39.9691 5.29846 38.3966 4.53453 36.7001 3.92195Z" fill="white"/>
<defs>
<linearGradient id="paint0_linear_5_4" x1="3.79282" y1="76.3358" x2="60.8926" y2="-1.26859" gradientUnits="userSpaceOnUse">
<stop stop-color="#43A22A"/>
<stop offset="0.0027933" stop-color="#43A22A"/>
<stop offset="0.9944" stop-color="#43A22A"/>
</linearGradient>
</defs>
</svg>
